<?xml version="1.0" standalone="no"?>
<!DOCTYPE svg PUBLIC "-//W3C//DTD SVG 20010904//EN"
 "http://www.w3.org/TR/2001/REC-SVG-20010904/DTD/svg10.dtd">
<svg version="1.0" xmlns="http://www.w3.org/2000/svg"
 width="834.000000pt" height="834.000000pt" viewBox="0 0 834.000000 834.000000"
 preserveAspectRatio="xMidYMid meet">

<g transform="translate(0.000000,834.000000) scale(0.100000,-0.100000)"
fill="#000000" stroke="none">
<path d="M875 7039 c-121 -47 -168 -129 -240 -418 -238 -951 -132 -2024 313
-3186 194 -508 371 -848 597 -1150 440 -588 970 -935 1542 -1010 277 -36 602
3 857 104 297 118 542 335 724 639 l56 95 26 -34 c81 -107 132 -165 228 -263
228 -231 454 -376 727 -465 189 -61 282 -75 490 -75 155 1 198 5 306 27 162
34 275 73 424 148 163 81 288 172 425 309 141 141 230 265 314 435 118 238
166 445 166 708 0 224 -27 325 -109 410 -54 58 -104 80 -191 85 -95 5 -168
-20 -239 -84 -87 -78 -94 -103 -96 -343 -1 -187 -4 -215 -28 -303 -101 -378
-371 -650 -734 -740 -118 -29 -331 -31 -448 -4 -418 96 -780 463 -995 1008
-62 159 -132 226 -268 258 -126 29 -267 -33 -323 -142 -10 -20 -39 -112 -64
-204 -77 -284 -138 -436 -226 -565 -139 -206 -346 -331 -609 -370 -102 -15
-347 -6 -445 15 -407 91 -766 357 -1052 781 -229 340 -443 808 -589 1290 -314
1036 -354 1855 -128 2625 54 182 45 249 -46 341 -40 41 -71 62 -113 78 -75 27
-182 28 -252 0z"/>
<path d="M6185 6884 c-16 -2 -79 -9 -140 -15 -639 -63 -1348 -344 -1813 -719
-119 -95 -305 -286 -390 -398 -175 -234 -287 -499 -323 -769 -15 -109 -6 -337
16 -453 88 -451 336 -748 769 -920 441 -175 1110 -187 1886 -34 411 81 976
250 1066 319 205 156 140 530 -99 574 -63 11 -114 0 -339 -77 -508 -174 -981
-269 -1456 -291 -698 -33 -1106 146 -1203 530 -18 71 -21 102 -16 209 11 259
108 462 327 680 160 161 335 284 585 410 501 255 1068 364 1660 320 193 -14
217 -10 292 43 88 62 152 200 138 295 -23 157 -133 253 -323 283 -66 10 -579
21 -637 13z"/>
</g>
</svg>
